<svg xmlns="http://www.w3.org/2000/svg" xmlns:xlink="http://www.w3.org/1999/xlink" width="800" zoomAndPan="magnify" viewBox="0 0 600 599.999999" height="800" preserveAspectRatio="xMidYMid meet" version="1.0"><defs><clipPath id="5634ab80e3"><path d="M 180 182 L 418 182 L 418 420 L 180 420 Z M 180 182 " clip-rule="nonzero"/></clipPath></defs><rect x="-60" width="720" fill="#ffffff" y="-60" height="719.999999" fill-opacity="1"/><rect x="-60" width="720" fill="#ffffff" y="-60" height="719.999999" fill-opacity="1"/><g clip-path="url(#5634ab80e3)"><path fill="#000000" d="M 406.578125 314.539062 C 405.421875 313.371094 404.191406 312.285156 402.886719 311.289062 C 401.578125 310.289062 400.210938 309.382812 398.785156 308.574219 C 397.355469 307.761719 395.875 307.054688 394.347656 306.445312 C 392.820312 305.835938 391.261719 305.335938 389.664062 304.941406 C 388.070312 304.550781 386.453125 304.265625 384.820312 304.09375 C 383.183594 303.921875 381.546875 303.863281 379.902344 303.917969 C 378.261719 303.972656 376.628906 304.136719 375.011719 304.414062 C 373.390625 304.691406 371.796875 305.082031 370.230469 305.578125 L 367.308594 302.691406 L 368.769531 301.230469 C 369.304688 300.695312 369.78125 300.113281 370.203125 299.484375 C 370.621094 298.851562 370.976562 298.1875 371.265625 297.488281 C 371.554688 296.789062 371.773438 296.070312 371.921875 295.328125 C 372.070312 294.582031 372.144531 293.832031 372.144531 293.078125 C 372.144531 292.320312 372.070312 291.570312 371.921875 290.828125 C 371.773438 290.085938 371.554688 289.363281 371.265625 288.664062 C 370.976562 287.964844 370.621094 287.300781 370.203125 286.671875 C 369.78125 286.042969 369.304688 285.457031 368.769531 284.921875 L 360.269531 276.421875 C 360.46875 275.574219 360.570312 274.714844 360.578125 273.847656 C 360.574219 272.316406 360.28125 270.84375 359.695312 269.433594 C 359.109375 268.019531 358.273438 266.773438 357.191406 265.691406 L 348.691406 257.191406 C 348.890625 256.34375 348.996094 255.484375 349 254.617188 C 349 253.085938 348.703125 251.613281 348.117188 250.203125 C 347.53125 248.789062 346.699219 247.542969 345.617188 246.460938 L 341.117188 241.960938 C 340.421875 241.269531 339.652344 240.675781 338.808594 240.175781 C 337.964844 239.679688 337.070312 239.296875 336.128906 239.027344 C 335.1875 238.757812 334.226562 238.613281 333.246094 238.589844 C 332.265625 238.5625 331.300781 238.664062 330.347656 238.882812 L 321.808594 230.421875 C 321.273438 229.886719 320.6875 229.40625 320.058594 228.980469 C 319.425781 228.558594 318.761719 228.203125 318.058594 227.910156 C 317.359375 227.621094 316.636719 227.402344 315.890625 227.253906 C 315.144531 227.105469 314.394531 227.03125 313.632812 227.03125 C 312.875 227.03125 312.125 227.105469 311.378906 227.253906 C 310.632812 227.402344 309.910156 227.621094 309.210938 227.910156 C 308.507812 228.203125 307.84375 228.558594 307.210938 228.980469 C 306.582031 229.40625 305.996094 229.886719 305.460938 230.421875 L 300.152344 235.691406 L 293.882812 229.460938 C 294.375 227.84375 294.75 226.199219 295.011719 224.527344 C 295.273438 222.855469 295.414062 221.175781 295.441406 219.484375 C 295.46875 217.792969 295.375 216.109375 295.164062 214.433594 C 294.957031 212.753906 294.632812 211.097656 294.191406 209.464844 C 293.75 207.835938 293.199219 206.242188 292.535156 204.683594 C 291.871094 203.128906 291.101562 201.628906 290.230469 200.179688 C 289.355469 198.730469 288.386719 197.351562 287.320312 196.039062 C 286.253906 194.726562 285.101562 193.496094 283.863281 192.34375 C 282.625 191.191406 281.3125 190.132812 279.925781 189.164062 C 278.539062 188.195312 277.09375 187.328125 275.585938 186.5625 C 274.078125 185.796875 272.523438 185.136719 270.925781 184.589844 C 269.324219 184.039062 267.695312 183.605469 266.035156 183.285156 C 264.375 182.960938 262.699219 182.757812 261.011719 182.671875 C 259.324219 182.582031 257.636719 182.613281 255.953125 182.761719 C 254.269531 182.910156 252.601562 183.175781 250.953125 183.558594 C 249.308594 183.9375 247.695312 184.433594 246.117188 185.039062 C 245.511719 185.277344 245.003906 185.648438 244.585938 186.144531 C 244.171875 186.644531 243.898438 187.210938 243.769531 187.847656 C 243.640625 188.484375 243.671875 189.113281 243.863281 189.734375 C 244.054688 190.351562 244.382812 190.890625 244.847656 191.347656 L 263 209.421875 C 263.78125 210.203125 264.386719 211.101562 264.8125 212.121094 C 265.238281 213.140625 265.453125 214.203125 265.460938 215.308594 C 265.492188 216.289062 265.335938 217.242188 264.988281 218.160156 C 264.640625 219.078125 264.132812 219.898438 263.460938 220.617188 C 263.078125 220.996094 262.660156 221.332031 262.207031 221.625 C 261.757812 221.917969 261.28125 222.164062 260.78125 222.363281 C 260.277344 222.5625 259.761719 222.707031 259.230469 222.800781 C 258.699219 222.894531 258.164062 222.933594 257.625 222.921875 C 257.085938 222.90625 256.554688 222.839844 256.03125 222.714844 C 255.503906 222.59375 255 222.421875 254.507812 222.195312 C 254.019531 221.972656 253.554688 221.699219 253.121094 221.382812 C 252.683594 221.066406 252.285156 220.707031 251.921875 220.308594 L 233.882812 202.191406 C 233.660156 201.96875 233.414062 201.777344 233.140625 201.617188 C 232.867188 201.453125 232.582031 201.328125 232.277344 201.238281 C 231.976562 201.144531 231.664062 201.09375 231.351562 201.078125 C 231.035156 201.0625 230.722656 201.089844 230.410156 201.152344 C 230.101562 201.214844 229.804688 201.3125 229.515625 201.449219 C 229.230469 201.585938 228.96875 201.753906 228.722656 201.957031 C 228.480469 202.15625 228.265625 202.386719 228.078125 202.640625 C 227.890625 202.894531 227.734375 203.167969 227.617188 203.460938 C 226.90625 205.273438 226.347656 207.132812 225.9375 209.035156 C 225.53125 210.9375 225.277344 212.859375 225.183594 214.804688 C 225.085938 216.746094 225.144531 218.683594 225.363281 220.621094 C 225.578125 222.554688 225.953125 224.457031 226.476562 226.332031 C 227.003906 228.203125 227.675781 230.023438 228.496094 231.789062 C 229.316406 233.550781 230.273438 235.238281 231.367188 236.847656 C 232.460938 238.457031 233.675781 239.96875 235.015625 241.382812 C 236.355469 242.792969 237.796875 244.089844 239.347656 245.269531 C 240.484375 246.160156 241.675781 246.980469 242.914062 247.726562 C 244.152344 248.476562 245.433594 249.144531 246.753906 249.738281 C 248.070312 250.332031 249.421875 250.84375 250.804688 251.269531 C 252.1875 251.699219 253.589844 252.042969 255.015625 252.300781 C 256.4375 252.5625 257.871094 252.730469 259.316406 252.816406 C 260.761719 252.902344 262.203125 252.898438 263.648438 252.808594 C 265.09375 252.71875 266.527344 252.542969 267.949219 252.277344 C 269.371094 252.015625 270.773438 251.664062 272.152344 251.230469 L 272.617188 251.691406 L 257 267.117188 C 256.25 267.871094 255.878906 268.78125 255.882812 269.847656 L 255.882812 302.960938 L 246.117188 313.421875 L 243.117188 310.382812 C 242.753906 310.019531 242.335938 309.738281 241.863281 309.542969 C 241.390625 309.34375 240.898438 309.246094 240.382812 309.246094 C 239.871094 309.246094 239.378906 309.34375 238.90625 309.542969 C 238.433594 309.738281 238.015625 310.019531 237.652344 310.382812 L 218.421875 329.617188 C 218.058594 329.976562 217.777344 330.394531 217.582031 330.867188 C 217.382812 331.339844 217.285156 331.832031 217.285156 332.347656 C 217.285156 332.859375 217.382812 333.351562 217.582031 333.824219 C 217.777344 334.296875 218.058594 334.714844 218.421875 335.078125 L 219.578125 336.191406 L 179.960938 375.921875 L 185.421875 381.382812 L 225 341.769531 L 261.882812 378.652344 L 226.117188 414.382812 L 231.578125 419.847656 L 267.308594 384.078125 L 268.421875 385.230469 C 268.785156 385.59375 269.203125 385.875 269.675781 386.074219 C 270.148438 386.269531 270.640625 386.367188 271.152344 386.367188 C 271.667969 386.367188 272.160156 386.269531 272.632812 386.074219 C 273.105469 385.875 273.523438 385.59375 273.882812 385.230469 L 293.117188 366 C 293.480469 365.640625 293.761719 365.222656 293.957031 364.75 C 294.15625 364.273438 294.253906 363.78125 294.253906 363.269531 C 294.253906 362.757812 294.15625 362.261719 293.957031 361.789062 C 293.761719 361.316406 293.480469 360.898438 293.117188 360.539062 L 291 358.460938 L 299.960938 348.847656 L 319.5 348.847656 C 320.566406 348.851562 321.476562 348.480469 322.230469 347.730469 L 345.578125 324.421875 L 348.421875 327.230469 C 347.988281 328.609375 347.636719 330.007812 347.371094 331.429688 C 347.105469 332.851562 346.925781 334.285156 346.832031 335.726562 C 346.742188 337.167969 346.738281 338.613281 346.824219 340.054688 C 346.90625 341.5 347.078125 342.933594 347.335938 344.355469 C 347.597656 345.777344 347.941406 347.179688 348.371094 348.558594 C 348.800781 349.941406 349.3125 351.289062 349.90625 352.609375 C 350.5 353.925781 351.171875 355.203125 351.917969 356.441406 C 352.667969 357.675781 353.492188 358.863281 354.382812 360 C 356.101562 362.195312 358.039062 364.171875 360.203125 365.929688 C 362.367188 367.6875 364.699219 369.179688 367.199219 370.410156 C 369.699219 371.636719 372.308594 372.570312 375.019531 373.210938 C 377.734375 373.847656 380.484375 374.175781 383.269531 374.191406 C 387.769531 374.207031 392.105469 373.359375 396.269531 371.652344 C 396.871094 371.414062 397.382812 371.042969 397.796875 370.546875 C 398.214844 370.050781 398.484375 369.480469 398.617188 368.847656 C 398.734375 368.214844 398.699219 367.59375 398.511719 366.980469 C 398.320312 366.367188 397.996094 365.835938 397.539062 365.382812 L 379.382812 347.269531 C 378.601562 346.488281 377.996094 345.589844 377.570312 344.570312 C 377.144531 343.550781 376.925781 342.488281 376.921875 341.382812 C 376.925781 340.394531 377.113281 339.441406 377.488281 338.523438 C 377.859375 337.605469 378.390625 336.789062 379.078125 336.078125 C 379.457031 335.714844 379.867188 335.394531 380.3125 335.113281 C 380.753906 334.832031 381.222656 334.59375 381.710938 334.40625 C 382.203125 334.214844 382.707031 334.078125 383.222656 333.988281 C 383.742188 333.898438 384.261719 333.859375 384.785156 333.871094 C 385.3125 333.882812 385.832031 333.945312 386.34375 334.0625 C 386.855469 334.175781 387.351562 334.339844 387.832031 334.550781 C 388.3125 334.765625 388.765625 335.019531 389.195312 335.324219 C 389.625 335.625 390.023438 335.964844 390.382812 336.347656 L 408.578125 354.460938 C 409.03125 354.910156 409.566406 355.230469 410.179688 355.414062 C 410.789062 355.597656 411.410156 355.625 412.039062 355.5 C 412.671875 355.375 413.234375 355.109375 413.730469 354.699219 C 414.230469 354.289062 414.601562 353.789062 414.847656 353.191406 C 415.488281 351.566406 416.011719 349.902344 416.410156 348.199219 C 416.808594 346.496094 417.078125 344.773438 417.226562 343.03125 C 417.371094 341.289062 417.386719 339.542969 417.273438 337.796875 C 417.164062 336.050781 416.925781 334.324219 416.558594 332.613281 C 416.191406 330.90625 415.703125 329.230469 415.089844 327.59375 C 414.480469 325.953125 413.75 324.367188 412.90625 322.839844 C 412.058594 321.308594 411.105469 319.847656 410.046875 318.457031 C 408.984375 317.066406 407.828125 315.757812 406.578125 314.539062 Z M 364.539062 293.078125 C 364.542969 294.140625 364.171875 295.050781 363.421875 295.808594 L 347.652344 311.5 L 347.308594 311.847656 C 346.945312 312.210938 346.53125 312.492188 346.054688 312.6875 C 345.582031 312.886719 345.089844 312.984375 344.578125 312.984375 C 344.0625 312.984375 343.570312 312.886719 343.097656 312.6875 C 342.625 312.492188 342.207031 312.210938 341.847656 311.847656 L 337.308594 307.347656 C 336.945312 306.984375 336.664062 306.566406 336.464844 306.09375 C 336.269531 305.621094 336.171875 305.128906 336.171875 304.617188 C 336.171875 304.101562 336.269531 303.609375 336.464844 303.136719 C 336.664062 302.664062 336.945312 302.246094 337.308594 301.882812 L 339.578125 299.652344 L 356.152344 283.117188 L 363.460938 290.191406 C 364.242188 290.996094 364.597656 291.957031 364.539062 293.078125 Z M 353 273.847656 C 353.007812 274.910156 352.632812 275.820312 351.882812 276.578125 L 334.152344 294.039062 L 331.882812 296.308594 C 331.523438 296.671875 331.105469 296.953125 330.632812 297.148438 C 330.160156 297.347656 329.667969 297.445312 329.152344 297.445312 C 328.640625 297.445312 328.148438 297.347656 327.675781 297.148438 C 327.203125 296.953125 326.785156 296.671875 326.421875 296.308594 L 326.117188 296 C 328.003906 295.101562 329.695312 293.921875 331.191406 292.460938 L 335.730469 287.960938 C 336.09375 287.601562 336.375 287.183594 336.574219 286.710938 C 336.769531 286.238281 336.867188 285.742188 336.867188 285.230469 C 336.867188 284.71875 336.769531 284.226562 336.574219 283.75 C 336.375 283.277344 336.09375 282.859375 335.730469 282.5 L 330.730469 277.539062 L 344.578125 263.730469 L 351.921875 270.960938 C 352.6875 271.773438 353.035156 272.734375 352.960938 273.847656 Z M 335.769531 247.382812 L 340.382812 251.730469 C 340.75 252.09375 341.03125 252.507812 341.226562 252.980469 C 341.421875 253.457031 341.523438 253.949219 341.523438 254.460938 C 341.523438 254.972656 341.421875 255.46875 341.226562 255.941406 C 341.03125 256.414062 340.75 256.832031 340.382812 257.191406 L 325.421875 272.117188 L 315.421875 262.152344 L 330.382812 247.230469 C 330.753906 246.894531 331.171875 246.640625 331.640625 246.464844 C 332.105469 246.292969 332.589844 246.210938 333.089844 246.226562 C 333.585938 246.242188 334.066406 246.347656 334.523438 246.546875 C 334.980469 246.75 335.382812 247.027344 335.730469 247.382812 Z M 311 235.847656 C 311.179688 235.664062 311.375 235.5 311.585938 235.355469 C 311.796875 235.210938 312.023438 235.089844 312.257812 234.988281 C 312.496094 234.890625 312.738281 234.816406 312.988281 234.765625 C 313.238281 234.714844 313.492188 234.6875 313.75 234.6875 C 314.007812 234.6875 314.261719 234.714844 314.511719 234.765625 C 314.761719 234.816406 315.003906 234.890625 315.242188 234.988281 C 315.476562 235.089844 315.703125 235.210938 315.914062 235.355469 C 316.125 235.5 316.320312 235.664062 316.5 235.847656 L 323.730469 243.078125 L 309.882812 256.882812 L 301.230469 248.269531 C 300.769531 247.808594 300.230469 247.460938 299.730469 247.039062 Z M 271.769531 243.191406 C 270.636719 243.648438 269.480469 244.027344 268.300781 244.332031 C 267.121094 244.632812 265.925781 244.859375 264.714844 245.007812 C 263.503906 245.15625 262.289062 245.226562 261.070312 245.21875 C 259.851562 245.207031 258.636719 245.117188 257.429688 244.949219 C 256.222656 244.78125 255.03125 244.535156 253.855469 244.214844 C 252.679688 243.890625 251.53125 243.492188 250.40625 243.019531 C 249.28125 242.546875 248.195312 242.003906 247.140625 241.386719 C 246.089844 240.773438 245.078125 240.09375 244.117188 239.347656 C 243.105469 238.574219 242.148438 237.738281 241.25 236.835938 C 240.351562 235.9375 239.515625 234.980469 238.746094 233.972656 C 237.972656 232.960938 237.269531 231.902344 236.640625 230.800781 C 236.007812 229.695312 235.453125 228.554688 234.972656 227.375 C 234.492188 226.199219 234.09375 224.992188 233.773438 223.761719 C 233.453125 222.53125 233.21875 221.285156 233.066406 220.019531 C 232.910156 218.757812 232.839844 217.492188 232.855469 216.21875 C 232.871094 214.945312 232.96875 213.683594 233.152344 212.421875 L 246.652344 225.921875 C 247.371094 226.652344 248.15625 227.308594 249.003906 227.886719 C 249.851562 228.464844 250.746094 228.953125 251.6875 229.355469 C 252.628906 229.757812 253.601562 230.066406 254.605469 230.28125 C 255.609375 230.492188 256.625 230.605469 257.648438 230.621094 C 258.671875 230.632812 259.691406 230.550781 260.699219 230.363281 C 261.707031 230.179688 262.6875 229.898438 263.640625 229.523438 C 264.59375 229.148438 265.503906 228.679688 266.367188 228.128906 C 267.230469 227.574219 268.03125 226.941406 268.769531 226.230469 C 270.195312 224.800781 271.289062 223.15625 272.054688 221.289062 C 272.824219 219.421875 273.203125 217.480469 273.191406 215.460938 C 273.191406 213.335938 272.78125 211.292969 271.960938 209.332031 C 271.140625 207.371094 269.976562 205.644531 268.460938 204.152344 L 254.921875 190.5 C 257.144531 190.167969 259.375 190.097656 261.613281 190.289062 C 263.851562 190.484375 266.035156 190.933594 268.167969 191.644531 C 270.300781 192.351562 272.320312 193.296875 274.226562 194.484375 C 276.136719 195.667969 277.882812 197.058594 279.460938 198.652344 C 280.445312 199.609375 281.355469 200.636719 282.1875 201.726562 C 283.023438 202.820312 283.769531 203.964844 284.4375 205.167969 C 285.101562 206.367188 285.671875 207.613281 286.15625 208.898438 C 286.636719 210.183594 287.019531 211.5 287.308594 212.84375 C 287.59375 214.183594 287.785156 215.542969 287.871094 216.914062 C 287.957031 218.28125 287.945312 219.652344 287.832031 221.019531 C 287.71875 222.390625 287.503906 223.742188 287.191406 225.078125 C 286.878906 226.417969 286.46875 227.722656 285.960938 229 C 285.820312 229.347656 285.734375 229.710938 285.699219 230.085938 C 285.664062 230.460938 285.683594 230.835938 285.761719 231.203125 C 285.835938 231.574219 285.960938 231.925781 286.140625 232.257812 C 286.320312 232.585938 286.542969 232.886719 286.808594 233.152344 L 294.769531 241.152344 L 292.421875 243.5 C 291.207031 243.226562 289.972656 243.085938 288.726562 243.078125 C 287.480469 243.066406 286.246094 243.191406 285.023438 243.445312 C 283.804688 243.703125 282.625 244.085938 281.484375 244.59375 C 280.347656 245.101562 279.273438 245.722656 278.269531 246.460938 L 275.882812 244.039062 C 275.617188 243.773438 275.320312 243.550781 274.988281 243.371094 C 274.65625 243.195312 274.304688 243.066406 273.933594 242.992188 C 273.566406 242.917969 273.191406 242.894531 272.816406 242.929688 C 272.441406 242.964844 272.082031 243.050781 271.730469 243.191406 Z M 271.152344 377.078125 L 226.578125 332.5 L 240.382812 318.691406 L 284.960938 363.269531 Z M 317.921875 341.152344 L 298.269531 341.152344 C 297.15625 341.15625 296.21875 341.566406 295.460938 342.382812 L 285.578125 353.039062 L 251.578125 319 L 262.539062 307.230469 C 263.226562 306.496094 263.574219 305.625 263.578125 304.617188 L 263.578125 271.617188 L 281.5 253.730469 C 281.976562 253.277344 282.496094 252.871094 283.050781 252.515625 C 283.605469 252.160156 284.191406 251.859375 284.800781 251.613281 C 285.414062 251.371094 286.046875 251.183594 286.691406 251.058594 C 287.339844 250.9375 287.996094 250.875 288.652344 250.875 C 289.3125 250.875 289.96875 250.9375 290.613281 251.058594 C 291.261719 251.183594 291.894531 251.371094 292.503906 251.613281 C 293.117188 251.859375 293.703125 252.160156 294.257812 252.515625 C 294.8125 252.871094 295.328125 253.277344 295.808594 253.730469 L 327.539062 285.382812 L 325.769531 287.152344 C 325.234375 287.695312 324.648438 288.175781 324.015625 288.601562 C 323.386719 289.027344 322.71875 289.386719 322.015625 289.679688 C 321.3125 289.972656 320.585938 290.195312 319.839844 290.34375 C 319.09375 290.492188 318.339844 290.566406 317.578125 290.566406 C 316.816406 290.566406 316.0625 290.492188 315.3125 290.34375 C 314.566406 290.195312 313.84375 289.972656 313.140625 289.679688 C 312.4375 289.386719 311.769531 289.027344 311.136719 288.601562 C 310.503906 288.175781 309.921875 287.695312 309.382812 287.152344 L 293.308594 270.960938 C 292.945312 270.601562 292.527344 270.320312 292.054688 270.125 C 291.582031 269.929688 291.089844 269.832031 290.578125 269.832031 C 290.066406 269.832031 289.574219 269.929688 289.101562 270.125 C 288.628906 270.324219 288.210938 270.601562 287.847656 270.964844 C 287.484375 271.324219 287.207031 271.742188 287.011719 272.214844 C 286.816406 272.6875 286.71875 273.179688 286.71875 273.691406 C 286.71875 274.203125 286.816406 274.695312 287.011719 275.171875 C 287.207031 275.644531 287.484375 276.0625 287.847656 276.421875 C 288.515625 277.089844 289.148438 277.785156 289.75 278.511719 C 290.347656 279.238281 290.914062 279.996094 291.4375 280.777344 C 291.964844 281.5625 292.449219 282.367188 292.894531 283.199219 C 293.339844 284.03125 293.746094 284.878906 294.109375 285.75 C 294.46875 286.621094 294.789062 287.507812 295.0625 288.410156 C 295.339844 289.3125 295.566406 290.226562 295.753906 291.152344 C 295.9375 292.078125 296.074219 293.007812 296.167969 293.945312 C 296.261719 294.886719 296.308594 295.824219 296.308594 296.769531 C 296.308594 297.710938 296.261719 298.652344 296.167969 299.589844 C 296.074219 300.53125 295.9375 301.460938 295.753906 302.386719 C 295.566406 303.3125 295.339844 304.226562 295.0625 305.128906 C 294.789062 306.03125 294.46875 306.917969 294.109375 307.785156 C 293.746094 308.65625 293.339844 309.507812 292.894531 310.339844 C 292.449219 311.171875 291.964844 311.976562 291.4375 312.761719 C 290.914062 313.542969 290.347656 314.300781 289.75 315.027344 C 289.148438 315.753906 288.515625 316.449219 287.847656 317.117188 L 293.308594 322.578125 C 295.007812 320.886719 296.523438 319.042969 297.859375 317.050781 C 299.191406 315.0625 300.316406 312.957031 301.234375 310.742188 C 302.152344 308.527344 302.84375 306.246094 303.308594 303.894531 C 303.773438 301.542969 304.003906 299.167969 304 296.769531 C 304.007812 295.25 303.917969 293.738281 303.730469 292.230469 L 303.960938 292.460938 C 305.726562 294.253906 307.761719 295.644531 310.074219 296.636719 C 312.382812 297.628906 314.792969 298.144531 317.308594 298.191406 L 321.152344 302.039062 C 322.179688 303.058594 323.359375 303.859375 324.683594 304.433594 C 326.011719 305.011719 327.398438 305.328125 328.847656 305.382812 C 328.902344 306.832031 329.21875 308.21875 329.796875 309.546875 C 330.371094 310.875 331.171875 312.050781 332.191406 313.078125 L 336.539062 317.117188 C 337.464844 318.058594 338.527344 318.800781 339.730469 319.347656 Z M 409.308594 344.460938 L 395.769531 330.960938 C 395.050781 330.226562 394.269531 329.570312 393.421875 328.992188 C 392.578125 328.414062 391.683594 327.921875 390.738281 327.515625 C 389.796875 327.113281 388.824219 326.804688 387.820312 326.589844 C 386.816406 326.378906 385.800781 326.261719 384.773438 326.25 C 383.75 326.234375 382.730469 326.320312 381.722656 326.503906 C 380.714844 326.691406 379.730469 326.972656 378.777344 327.351562 C 377.824219 327.726562 376.917969 328.195312 376.054688 328.75 C 375.191406 329.308594 374.390625 329.941406 373.652344 330.652344 C 372.222656 332.070312 371.125 333.710938 370.355469 335.570312 C 369.589844 337.433594 369.214844 339.371094 369.230469 341.382812 C 369.226562 343.515625 369.632812 345.566406 370.453125 347.535156 C 371.273438 349.5 372.445312 351.234375 373.960938 352.730469 L 387.460938 366.191406 C 386.203125 366.367188 384.9375 366.460938 383.667969 366.472656 C 382.398438 366.480469 381.132812 366.40625 379.871094 366.25 C 378.609375 366.09375 377.363281 365.855469 376.136719 365.535156 C 374.90625 365.214844 373.703125 364.8125 372.523438 364.335938 C 371.347656 363.855469 370.207031 363.300781 369.105469 362.671875 C 368 362.042969 366.941406 361.34375 365.929688 360.574219 C 364.917969 359.804688 363.960938 358.976562 363.058594 358.082031 C 362.15625 357.1875 361.316406 356.234375 360.539062 355.230469 C 359.792969 354.273438 359.113281 353.269531 358.496094 352.222656 C 357.882812 351.175781 357.335938 350.089844 356.863281 348.972656 C 356.390625 347.851562 355.992188 346.707031 355.667969 345.539062 C 355.347656 344.367188 355.101562 343.179688 354.933594 341.976562 C 354.765625 340.773438 354.675781 339.5625 354.664062 338.347656 C 354.65625 337.132812 354.726562 335.925781 354.875 334.71875 C 355.023438 333.511719 355.25 332.320312 355.554688 331.144531 C 355.859375 329.96875 356.238281 328.820312 356.691406 327.691406 C 356.828125 327.339844 356.910156 326.972656 356.9375 326.597656 C 356.964844 326.21875 356.941406 325.84375 356.859375 325.476562 C 356.777344 325.105469 356.640625 324.757812 356.457031 324.425781 C 356.269531 324.097656 356.042969 323.800781 355.769531 323.539062 L 351.230469 319 L 352.921875 317.308594 L 362.152344 308.152344 L 366.691406 312.691406 C 366.960938 312.960938 367.261719 313.1875 367.597656 313.367188 C 367.933594 313.546875 368.285156 313.675781 368.660156 313.75 C 369.03125 313.828125 369.410156 313.847656 369.789062 313.808594 C 370.167969 313.773438 370.53125 313.683594 370.882812 313.539062 C 371.460938 313.324219 372.046875 313.128906 372.636719 312.953125 C 373.230469 312.773438 373.824219 312.617188 374.425781 312.480469 C 375.027344 312.339844 375.628906 312.222656 376.238281 312.121094 C 376.847656 312.023438 377.457031 311.945312 378.074219 311.882812 C 378.6875 311.824219 379.300781 311.78125 379.917969 311.761719 C 380.535156 311.742188 381.148438 311.742188 381.765625 311.761719 C 382.382812 311.78125 382.996094 311.820312 383.613281 311.878906 C 384.226562 311.9375 384.835938 312.015625 385.445312 312.113281 C 386.054688 312.210938 386.660156 312.328125 387.261719 312.464844 C 387.859375 312.601562 388.457031 312.757812 389.046875 312.933594 C 389.640625 313.109375 390.222656 313.304688 390.804688 313.519531 C 391.382812 313.730469 391.953125 313.960938 392.515625 314.210938 C 393.078125 314.460938 393.636719 314.730469 394.179688 315.015625 C 394.726562 315.300781 395.265625 315.605469 395.792969 315.925781 C 396.316406 316.246094 396.835938 316.582031 397.339844 316.933594 C 397.84375 317.289062 398.339844 317.65625 398.820312 318.042969 C 399.300781 318.429688 399.769531 318.828125 400.226562 319.242188 C 400.679688 319.660156 401.125 320.089844 401.550781 320.53125 C 401.980469 320.976562 402.390625 321.433594 402.792969 321.902344 C 403.191406 322.375 403.574219 322.855469 403.941406 323.351562 C 404.308594 323.847656 404.660156 324.351562 404.992188 324.871094 C 405.328125 325.386719 405.648438 325.917969 405.949219 326.453125 C 406.25 326.992188 406.53125 327.539062 406.796875 328.097656 C 407.0625 328.652344 407.3125 329.21875 407.539062 329.789062 C 407.769531 330.363281 407.980469 330.941406 408.171875 331.527344 C 408.363281 332.113281 408.539062 332.703125 408.691406 333.300781 C 408.847656 333.898438 408.980469 334.5 409.097656 335.105469 C 409.210938 335.710938 409.308594 336.320312 409.382812 336.933594 C 409.460938 337.542969 409.515625 338.15625 409.550781 338.773438 C 409.589844 339.386719 409.605469 340.003906 409.601562 340.621094 C 409.597656 341.238281 409.578125 341.851562 409.535156 342.46875 C 409.492188 343.082031 409.429688 343.695312 409.347656 344.308594 Z M 409.308594 344.460938 " fill-opacity="1" fill-rule="nonzero"/></g></svg>